<?xml version="1.0" standalone="no"?>
<!DOCTYPE svg PUBLIC "-//W3C//DTD SVG 20010904//EN"
 "http://www.w3.org/TR/2001/REC-SVG-20010904/DTD/svg10.dtd">
<svg version="1.0" xmlns="http://www.w3.org/2000/svg"
 width="512.000000pt" height="512.000000pt" viewBox="0 0 512.000000 512.000000"
 preserveAspectRatio="xMidYMid meet">
<metadata>
Created by potrace 1.14, written by Peter Selinger 2001-2017
</metadata>
<g transform="translate(0.000000,512.000000) scale(0.100000,-0.100000)"
fill="#000000" stroke="none">
<path d="M940 5064 c-58 -18 -86 -32 -135 -68 -39 -29 -656 -643 -685 -682
-24 -32 -47 -77 -55 -109 -5 -16 -10 -37 -12 -45 -10 -33 -11 -141 -2 -177 5
-21 12 -46 14 -56 7 -29 51 -100 83 -135 16 -17 29 -33 28 -34 -3 -7 844 -844
849 -840 3 3 5 -3 5 -13 0 -10 3 -16 6 -13 3 3 36 -27 74 -67 38 -40 71 -70
74 -67 3 3 6 -2 6 -12 0 -9 5 -14 10 -11 6 3 11 0 11 -7 1 -7 74 -83 163 -168
89 -85 175 -171 191 -190 17 -19 98 -101 181 -183 83 -81 150 -147 149 -147
-3 0 189 -190 194 -191 3 -1 56 -54 116 -118 61 -64 122 -126 137 -136 16 -11
28 -25 28 -32 0 -6 4 -13 10 -15 9 -3 213 -205 640 -633 256 -257 306 -305
319 -305 6 0 11 -5 11 -11 0 -5 5 -7 10 -4 6 3 10 1 10 -5 0 -6 4 -9 9 -6 5 4
11 2 13 -3 1 -5 10 -11 18 -13 8 -2 21 -9 28 -16 8 -7 18 -10 23 -7 5 4 9 1 9
-4 0 -6 5 -11 11 -11 7 0 30 -9 53 -19 105 -49 180 -78 331 -129 86 -28 198
-63 220 -68 6 -1 48 -14 95 -29 47 -14 94 -29 105 -31 29 -7 38 -10 55 -17 8
-4 24 -8 35 -10 11 -1 26 -6 33 -10 6 -5 12 -6 12 -3 0 3 24 -3 53 -13 28 -10
57 -19 62 -21 6 -1 21 -7 35 -13 14 -6 28 -10 33 -9 4 1 7 -3 7 -8 0 -5 3 -9
8 -8 4 1 27 -7 52 -18 25 -11 68 -29 95 -38 28 -10 57 -21 65 -24 57 -20 155
-27 190 -12 48 20 60 48 55 131 -2 41 -10 91 -19 111 -9 21 -16 39 -15 40 0 3
-17 48 -34 88 -6 14 -11 27 -12 30 -1 3 -13 31 -28 62 -15 31 -27 63 -27 71 0
7 -3 17 -7 21 -4 3 -8 13 -9 20 -1 7 -10 40 -19 72 -10 33 -18 64 -20 69 -1 6
-4 17 -7 25 -11 29 -29 95 -31 110 -2 8 -5 20 -9 25 -3 6 -9 26 -14 45 -4 19
-9 40 -10 45 -1 6 -9 30 -18 54 -9 24 -14 47 -11 51 3 5 2 10 -2 12 -6 2 -52
130 -58 158 -3 14 -29 89 -41 115 -7 17 -29 70 -49 119 -20 49 -40 96 -45 105
-5 9 -18 36 -30 61 -31 65 -80 140 -92 140 -5 0 -6 5 -3 10 3 6 2 10 -3 10
-10 0 8 -17 -257 249 -115 116 -213 211 -218 211 -4 0 -5 5 -2 10 3 6 -1 10
-10 10 -9 0 -15 3 -13 8 4 9 -341 350 -347 343 -3 -2 -5 3 -5 13 0 9 -5 14
-10 11 -6 -3 -11 0 -11 7 -1 7 -93 102 -204 211 -111 108 -201 197 -200 197 1
0 -116 118 -259 263 -144 144 -264 261 -268 259 -5 -2 -8 4 -8 13 0 9 -4 13
-10 10 -5 -3 -10 -2 -10 2 0 8 -350 363 -357 363 -4 0 -43 39 -43 43 0 5 -714
720 -834 835 -99 95 -139 122 -231 157 -36 13 -179 12 -225 -1z"/>
</g>
</svg>
